<?xml version="1.0" encoding="UTF-8" standalone="no" ?>
<!DOCTYPE svg PUBLIC "-//W3C//DTD SVG 1.1//EN" "http://www.w3.org/Graphics/SVG/1.1/DTD/svg11.dtd">
<svg xmlns="http://www.w3.org/2000/svg" xmlns:xlink="http://www.w3.org/1999/xlink" version="1.1" width="1080" height="1080" viewBox="0 0 1080 1080" xml:space="preserve">
<desc>Created with Fabric.js 5.2.4</desc>
<defs>
</defs>
<rect x="0" y="0" width="100%" height="100%" fill="transparent"></rect>
<g transform="matrix(1 0 0 1 540 540)" id="f1847806-1403-4e10-a89b-34649597b575"  >
<rect style="stroke: none; stroke-width: 1; stroke-dasharray: none; stroke-linecap: butt; stroke-dashoffset: 0; stroke-linejoin: miter; stroke-miterlimit: 4; fill: rgb(255,255,255); fill-rule: nonzero; opacity: 1; visibility: hidden;" vector-effect="non-scaling-stroke"  x="-540" y="-540" rx="0" ry="0" width="1080" height="1080" />
</g>
<g transform="matrix(1 0 0 1 540 540)" id="fd5a386c-0389-4eb4-9be0-4dc2a6decd7c"  >
</g>
<g transform="matrix(0 0 0 0 0 0)"  >
<g style=""   >
</g>
</g>
<g transform="matrix(0 0 0 0 0 0)"  >
<g style=""   >
</g>
</g>
<g transform="matrix(0 0 0 0 0 0)"  >
<g style=""   >
</g>
</g>
<g transform="matrix(0 0 0 0 0 0)"  >
<g style=""   >
</g>
</g>
<g transform="matrix(NaN NaN NaN NaN 0 0)"  >
<g style=""   >
</g>
</g>
<g transform="matrix(NaN NaN NaN NaN 0 0)"  >
<g style=""   >
</g>
</g>
<g transform="matrix(NaN NaN NaN NaN 0 0)"  >
<g style=""   >
</g>
</g>
<g transform="matrix(NaN NaN NaN NaN 0 0)"  >
<g style=""   >
</g>
</g>
<g transform="matrix(1 0 0 1 540 540)"  >
<g style="" vector-effect="non-scaling-stroke"   >
		<g transform="matrix(53.33 0 0 53.33 -155.52 -63.75)"  >
<path style="stroke: none; stroke-width: 1; stroke-dasharray: none; stroke-linecap: butt; stroke-dashoffset: 0; stroke-linejoin: miter; stroke-miterlimit: 4; fill: rgb(252,252,252); fill-rule: nonzero; opacity: 1;" vector-effect="non-scaling-stroke"  transform=" translate(-4.58, -6.3)" d="M 4.10395 3.39722 L 6.57057 8.33045 L 3.92564 9.2121 L 2.59746 3.89939 L 4.10395 3.39722 Z" stroke-linecap="round" />
</g>
		<g transform="matrix(53.33 0 0 53.33 140.89 116.53)"  >
<path style="stroke: none; stroke-width: 1; stroke-dasharray: none; stroke-linecap: butt; stroke-dashoffset: 0; stroke-linejoin: miter; stroke-miterlimit: 4; fill: rgb(252,252,252); fill-rule: nonzero; opacity: 1;" vector-effect="non-scaling-stroke"  transform=" translate(-10.14, -9.68)" d="M 9.27727 11.5078 L 7.98064 8.91452 L 11.1378 7.86212 L 12.3027 9.69254 L 9.27727 11.5078 Z" stroke-linecap="round" />
</g>
		<g transform="matrix(53.33 0 0 53.33 219.42 -70)"  >
<path style="stroke: none; stroke-width: 1; stroke-dasharray: none; stroke-linecap: butt; stroke-dashoffset: 0; stroke-linejoin: miter; stroke-miterlimit: 4; fill: rgb(252,252,252); fill-rule: nonzero; opacity: 1;" vector-effect="non-scaling-stroke"  transform=" translate(-11.61, -6.19)" d="M 12.1839 6.45935 L 11.5623 6.66653 L 11.0444 5.85257 L 11.6207 5.70848 L 12.1839 6.45935 Z" stroke-linecap="round" />
</g>
		<g transform="matrix(53.33 0 0 53.33 0 0)"  >
<path style="stroke: none; stroke-width: 1; stroke-dasharray: none; stroke-linecap: butt; stroke-dashoffset: 0; stroke-linejoin: miter; stroke-miterlimit: 4; fill: rgb(252,252,252); fill-rule: evenodd; opacity: 1;" vector-effect="non-scaling-stroke"  transform=" translate(-7.5, -7.5)" d="M 0 2.5 C 0 1.11929 1.11929 0 2.5 0 L 12.5 0 C 13.8807 0 15 1.11929 15 2.5 L 15 12.5 C 15 13.8807 13.8807 15 12.5 15 L 2.5 15 C 1.11929 15 0 13.8807 0 12.5 L 0 2.5 Z M 4.80445 2.56215 C 4.69317 2.33959 4.43518 2.23272 4.19912 2.31141 L 1.84198 3.09712 C 1.59412 3.17974 1.45165 3.43927 1.51502 3.69273 L 3.08645 9.97845 C 3.12023 10.1136 3.20883 10.2285 3.33091 10.2955 C 3.453 10.3625 3.59751 10.3756 3.72963 10.3315 L 7.02232 9.23396 L 8.62431 12.4379 C 8.68659 12.5625 8.79801 12.6554 8.93173 12.6944 C 9.06544 12.7333 9.20934 12.7147 9.32877 12.6431 L 13.2573 10.2859 C 13.373 10.2165 13.4557 10.1033 13.4867 9.97206 C 13.5177 9.84078 13.4943 9.70254 13.4219 9.58874 L 12.1157 7.53616 L 13.1582 7.18866 C 13.3107 7.13784 13.4294 7.01682 13.4773 6.86341 C 13.5253 6.71 13.4965 6.5429 13.4001 6.41432 L 12.2215 4.84289 C 12.1008 4.68196 11.8954 4.60903 11.7003 4.65782 L 10.1288 5.05068 C 9.9729 5.08966 9.84522 5.20122 9.78567 5.3505 C 9.72613 5.49979 9.74197 5.6686 9.82826 5.80419 L 10.5845 6.99249 L 7.52888 8.01101 L 4.80445 2.56215 Z" stroke-linecap="round" />
</g>
</g>
</g>
</svg>