<?xml version="1.0" encoding="UTF-8" standalone="no" ?>
<!DOCTYPE svg PUBLIC "-//W3C//DTD SVG 1.1//EN" "http://www.w3.org/Graphics/SVG/1.1/DTD/svg11.dtd">
<svg xmlns="http://www.w3.org/2000/svg" xmlns:xlink="http://www.w3.org/1999/xlink" version="1.1" width="1080" height="1080" viewBox="0 0 1080 1080" xml:space="preserve">
<desc>Created with Fabric.js 5.2.4</desc>
<defs>
</defs>
<rect x="0" y="0" width="100%" height="100%" fill="transparent"></rect>
<g transform="matrix(1 0 0 1 540 540)" id="2e3ddc11-7053-4a9d-8753-1ec6590914ac"  >
<rect style="stroke: none; stroke-width: 1; stroke-dasharray: none; stroke-linecap: butt; stroke-dashoffset: 0; stroke-linejoin: miter; stroke-miterlimit: 4; fill: rgb(255,255,255); fill-rule: nonzero; opacity: 1; visibility: hidden;" vector-effect="non-scaling-stroke"  x="-540" y="-540" rx="0" ry="0" width="1080" height="1080" />
</g>
<g transform="matrix(1 0 0 1 540 540)" id="98c80652-dce8-479a-b08a-c5c118ecc27e"  >
</g>
<g transform="matrix(19.16 0 0 19.16 530.34 542.16)" id="f9c5e32f-91f2-4779-8650-5db2c086bb7b"  >
<path style="stroke: rgb(0,0,0); stroke-width: 0; stroke-dasharray: none; stroke-linecap: butt; stroke-dashoffset: 0; stroke-linejoin: miter; stroke-miterlimit: 4; fill: rgb(252,252,252); fill-rule: nonzero; opacity: 1;" vector-effect="non-scaling-stroke"  transform=" translate(-24.83, -25.56)" d="M 49.626 11.564 C 49.64441161459833 11.632146724199119 49.65382489084445 11.702410107607589 49.653999999999996 11.773 L 49.653999999999996 22.744999999999997 C 49.65401032601968 23.031647315632707 49.50065622045303 23.296392960566184 49.251999999999995 23.438999999999997 L 40.04299999999999 28.740999999999996 L 40.04299999999999 39.25 C 40.04299999999999 39.536 39.89099999999999 39.8 39.642999999999994 39.944 L 20.419999999999995 51.010000000000005 C 20.375999999999994 51.035000000000004 20.327999999999996 51.051 20.279999999999994 51.068000000000005 C 20.261999999999993 51.074000000000005 20.244999999999994 51.08500000000001 20.225999999999996 51.09 C 20.091623969534176 51.12538664234515 19.950376030465815 51.12538664234515 19.815999999999995 51.09 C 19.793999999999997 51.084 19.773999999999994 51.072 19.752999999999997 51.064 C 19.708999999999996 51.048 19.662999999999997 51.034 19.620999999999995 51.01 L 0.4019999999999939 39.943999999999996 C 0.1534952163311027 39.80124092487781 0.00019690127051757988 39.5365915948976 -6.050715484207103e-15 39.24999999999999 L -6.106226635438361e-15 6.333999999999996 C -6.106226635438361e-15 6.261999999999996 0.009999999999993894 6.191999999999996 0.027999999999993894 6.123999999999996 C 0.033999999999993896 6.100999999999996 0.047999999999993895 6.0799999999999965 0.055999999999993895 6.056999999999996 C 0.0709999999999939 6.014999999999996 0.0849999999999939 5.971999999999996 0.10699999999999389 5.932999999999996 C 0.12199999999999389 5.9069999999999965 0.14399999999999388 5.885999999999997 0.1619999999999939 5.8619999999999965 C 0.1849999999999939 5.8299999999999965 0.2059999999999939 5.796999999999996 0.23299999999999388 5.768999999999997 C 0.2559999999999939 5.745999999999997 0.28599999999999387 5.7289999999999965 0.3119999999999939 5.708999999999997 C 0.3409999999999939 5.684999999999997 0.3669999999999939 5.658999999999997 0.3999999999999939 5.639999999999997 L 0.4009999999999939 5.639999999999997 L 10.010999999999994 0.10699999999999665 C 10.258630898567112 -0.035494979933277854 10.563369101432876 -0.03549497993327763 10.810999999999995 0.10699999999999676 L 20.420999999999992 5.639999999999997 L 20.42299999999999 5.639999999999997 C 20.45499999999999 5.659999999999997 20.481999999999992 5.684999999999997 20.510999999999992 5.707999999999997 C 20.536999999999992 5.727999999999996 20.565999999999992 5.745999999999997 20.58899999999999 5.767999999999996 C 20.61699999999999 5.796999999999996 20.63699999999999 5.8299999999999965 20.66099999999999 5.8619999999999965 C 20.67799999999999 5.885999999999997 20.70099999999999 5.9069999999999965 20.71499999999999 5.932999999999996 C 20.73799999999999 5.972999999999996 20.75099999999999 6.014999999999996 20.76699999999999 6.056999999999996 C 20.774999999999988 6.079999999999996 20.788999999999987 6.1009999999999955 20.794999999999987 6.124999999999996 C 20.813411614598326 6.1931467241991145 20.822824890844437 6.263410107607584 20.822999999999986 6.333999999999995 L 20.822999999999986 26.892999999999997 L 28.830999999999985 22.281999999999996 L 28.830999999999985 11.771999999999997 C 28.830999999999985 11.701999999999996 28.840999999999987 11.630999999999997 28.858999999999984 11.563999999999997 C 28.865999999999985 11.539999999999997 28.878999999999984 11.518999999999997 28.886999999999983 11.495999999999997 C 28.90299999999998 11.453999999999997 28.916999999999984 11.410999999999996 28.938999999999982 11.371999999999996 C 28.953999999999983 11.345999999999997 28.97599999999998 11.324999999999996 28.99299999999998 11.300999999999997 C 29.01699999999998 11.268999999999997 29.03699999999998 11.235999999999997 29.06499999999998 11.207999999999997 C 29.08799999999998 11.184999999999997 29.11699999999998 11.167999999999997 29.14299999999998 11.147999999999996 C 29.17299999999998 11.123999999999997 29.19899999999998 11.097999999999995 29.23099999999998 11.078999999999995 L 29.23199999999998 11.078999999999995 L 38.84299999999998 5.545999999999995 C 39.090576005020786 5.403299711204725 39.395423994979176 5.403299711204726 39.64299999999998 5.545999999999995 L 49.25299999999998 11.078999999999995 C 49.28699999999998 11.098999999999995 49.31299999999998 11.123999999999995 49.34299999999998 11.146999999999995 C 49.36799999999998 11.166999999999994 49.396999999999984 11.184999999999995 49.41999999999998 11.206999999999995 C 49.44799999999998 11.235999999999995 49.46799999999998 11.268999999999995 49.49199999999998 11.300999999999995 C 49.509999999999984 11.324999999999994 49.53199999999998 11.345999999999995 49.545999999999985 11.371999999999995 C 49.56899999999999 11.410999999999994 49.58199999999999 11.453999999999995 49.597999999999985 11.495999999999995 C 49.606999999999985 11.518999999999995 49.61999999999998 11.539999999999996 49.62599999999998 11.563999999999995 z M 48.052 22.282 L 48.052 13.158 L 44.689 15.094 L 40.043 17.769 L 40.043 26.893 L 48.053 22.282 z M 38.442 38.787 L 38.442 29.656999999999996 L 33.872 32.266999999999996 L 20.822 39.714999999999996 L 20.822 48.931 z M 1.6019999999999968 7.718999999999998 L 1.6019999999999968 38.787 L 19.219999999999995 48.93 L 19.219999999999995 39.716 L 10.015999999999995 34.507000000000005 L 10.012999999999995 34.505 L 10.008999999999995 34.503 C 9.977999999999994 34.485 9.951999999999995 34.459 9.922999999999995 34.437 C 9.897999999999994 34.416999999999994 9.868999999999994 34.400999999999996 9.846999999999994 34.379 L 9.844999999999994 34.376 C 9.818999999999994 34.351 9.800999999999993 34.32 9.778999999999993 34.291999999999994 C 9.758999999999993 34.26499999999999 9.734999999999992 34.242 9.718999999999992 34.21399999999999 L 9.717999999999993 34.21099999999999 C 9.699999999999992 34.18099999999999 9.688999999999993 34.14499999999999 9.675999999999993 34.11099999999999 C 9.662999999999993 34.08099999999999 9.645999999999994 34.05299999999999 9.637999999999993 34.02099999999999 L 9.637999999999993 34.01999999999999 C 9.627999999999993 33.98199999999999 9.625999999999992 33.941999999999986 9.621999999999993 33.90299999999999 C 9.617999999999993 33.87299999999999 9.609999999999992 33.84299999999999 9.609999999999992 33.81299999999999 L 9.609999999999992 12.329999999999988 L 4.964999999999993 9.653999999999987 L 1.6019999999999928 7.719999999999987 z M 10.411999999999997 1.7249999999999979 L 2.4049999999999976 6.333999999999998 L 10.409999999999998 10.942999999999998 L 18.415999999999997 6.3329999999999975 L 10.409999999999997 1.7249999999999979 z M 14.575999999999997 30.488999999999997 L 19.220999999999997 27.814999999999998 L 19.220999999999997 7.718999999999998 L 15.857999999999997 9.654999999999998 L 11.211999999999996 12.329999999999998 L 11.211999999999996 32.426 z M 39.242999999999995 7.163999999999998 L 31.236999999999995 11.772999999999998 L 39.242999999999995 16.381999999999998 L 47.248 11.771999999999998 z M 38.44199999999999 17.769 L 33.79599999999999 15.093999999999998 L 30.432999999999993 13.157999999999998 L 30.432999999999993 22.281999999999996 L 35.07799999999999 24.955999999999996 L 38.441999999999986 26.892999999999997 z M 20.019999999999992 38.33 L 31.76299999999999 31.625999999999998 L 37.63299999999999 28.275999999999996 L 29.63299999999999 23.669999999999995 L 20.42199999999999 28.972999999999995 L 12.02699999999999 33.806 z" stroke-linecap="round" />
</g>
</svg>