<?xml version="1.0" encoding="UTF-8" standalone="no" ?>
<!DOCTYPE svg PUBLIC "-//W3C//DTD SVG 1.1//EN" "http://www.w3.org/Graphics/SVG/1.1/DTD/svg11.dtd">
<svg xmlns="http://www.w3.org/2000/svg" xmlns:xlink="http://www.w3.org/1999/xlink" version="1.1" width="1080" height="1080" viewBox="0 0 1080 1080" xml:space="preserve">
<desc>Created with Fabric.js 5.2.4</desc>
<defs>
</defs>
<g transform="matrix(1 0 0 1 540 540)" id="f1847806-1403-4e10-a89b-34649597b575"  >
<rect style="stroke: none; stroke-width: 1; stroke-dasharray: none; stroke-linecap: butt; stroke-dashoffset: 0; stroke-linejoin: miter; stroke-miterlimit: 4; fill: rgb(255,255,255); fill-rule: nonzero; opacity: 1; visibility: hidden;" vector-effect="non-scaling-stroke"  x="-540" y="-540" rx="0" ry="0" width="1080" height="1080" />
</g>
<g transform="matrix(1 0 0 1 540 540)" id="fd5a386c-0389-4eb4-9be0-4dc2a6decd7c"  >
</g>
<g transform="matrix(38.52 0 0 38.52 546.74 546.19)" id="11208192-5175-427f-814d-448c108130e8"  >
<path style="stroke: rgb(0,0,0); stroke-width: 0; stroke-dasharray: none; stroke-linecap: butt; stroke-dashoffset: 0; stroke-linejoin: miter; stroke-miterlimit: 4; fill: rgb(252,252,252); fill-rule: nonzero; opacity: 1;" vector-effect="non-scaling-stroke"  transform=" translate(-12, -12)" d="M 12.843 0.979 C 10.722999999999999 0.883 9.366 2.418 9.366 2.418 C 2.52 2.5 0.791 8.429 0.75 8.552 L 0.502 9.292 C -1.7659999999999998 18.072 4.391 21.512 4.391 21.512 C 4.579 21.603 4.766 21.446 4.766 21.446 C 5.266 21.136000000000003 5.018 20.916 5.018 20.916 C 3.588 19.174 3.423 15.052 3.4219999999999997 15.017 C 2.7819999999999996 14.485 2.1739999999999995 13.699 2.311 12.674999999999999 C 2.311 12.674999999999999 2.395 12.165 2.895 12.478 C 2.895 12.478 4.0809999999999995 13.122 5.018000000000001 13.308 C 5.017 13.308 5.494000000000001 13.350999999999999 5.518000000000001 13.485 C 5.518000000000001 13.485 5.892 15.237 4.738 15.805 C 5.4830000000000005 16.242 6.203 16.655 6.203 16.655 C 6.327 17.918 7.013 21.975 7.013 21.975 C 7.077 22.772000000000002 7.919 22.929000000000002 7.919 22.929000000000002 C 8.402 23.101000000000003 12.039 22.991000000000003 12.039 22.991000000000003 C 13.052999999999999 22.947000000000003 13.100999999999999 22.038000000000004 13.100999999999999 22.038000000000004 C 13.116 21.493000000000002 13.130999999999998 18.418000000000003 13.130999999999998 18.418000000000003 C 13.226999999999999 17.843000000000004 13.896999999999998 17.918000000000003 13.896999999999998 17.918000000000003 C 14.599999999999998 17.888 14.584999999999999 18.372000000000003 14.584999999999999 18.372000000000003 C 14.568 18.887000000000004 14.629999999999999 21.868000000000002 14.629999999999999 21.868000000000002 C 14.659999999999998 22.726000000000003 15.411 22.993000000000002 15.411 22.993000000000002 C 15.899 22.993000000000002 16.239 22.989 16.776 22.993000000000002 C 17.028 22.995 18.249 22.993000000000002 18.249 22.993000000000002 C 18.799 22.686000000000003 19.625999999999998 22.024 19.625999999999998 22.024 C 25.494 17.114 23.760999999999996 10.124 23.760999999999996 10.124 C 22.93 5.88 17.792 5.1 17.792 5.1 C 17.21 3.2889999999999997 16.149 2.4179999999999997 16.149 2.4179999999999997 C 14.927000000000001 1.4029999999999998 13.806000000000001 1.0219999999999998 12.843 0.9779999999999998 z M 17.849 5.252 C 17.849 5.252 19.694 8.332 16.122 13.112 C 16.123 13.113 13.182 17.228 7.890000000000001 14.335 C 8.974 14.858 13.426 16.647000000000002 16.265 12.355 C 16.265 12.355 18.897000000000002 8.918000000000001 17.849 5.252000000000001 z M 6.703 8.868 C 6.703 8.868 7.9990000000000006 8.904 8.044 10.688 C 8.044 10.688 7.024000000000001 8.02 4.773000000000001 10.488000000000001 C 4.773000000000001 10.488000000000001 5.1770000000000005 8.759 6.703 8.868000000000002 z" stroke-linecap="round" />
</g>
</svg>