<?xml version="1.0" encoding="UTF-8" standalone="no" ?>
<!DOCTYPE svg PUBLIC "-//W3C//DTD SVG 1.1//EN" "http://www.w3.org/Graphics/SVG/1.1/DTD/svg11.dtd">
<svg xmlns="http://www.w3.org/2000/svg" xmlns:xlink="http://www.w3.org/1999/xlink" version="1.1" width="1080" height="1080" viewBox="0 0 1080 1080" xml:space="preserve">
<desc>Created with Fabric.js 5.2.4</desc>
<defs>
</defs>
<g transform="matrix(1 0 0 1 540 540)" id="2e3ddc11-7053-4a9d-8753-1ec6590914ac"  >
<rect style="stroke: none; stroke-width: 1; stroke-dasharray: none; stroke-linecap: butt; stroke-dashoffset: 0; stroke-linejoin: miter; stroke-miterlimit: 4; fill: rgb(255,255,255); fill-rule: nonzero; opacity: 1; visibility: hidden;" vector-effect="non-scaling-stroke"  x="-540" y="-540" rx="0" ry="0" width="1080" height="1080" />
</g>
<g transform="matrix(1 0 0 1 540 540)" id="98c80652-dce8-479a-b08a-c5c118ecc27e"  >
</g>
<g transform="matrix(15.3 0 0 15.3 541.78 541.75)" id="ba5ca3c0-2cb6-45df-8366-eddebf14de4f"  >
<path style="stroke: rgb(0,0,0); stroke-width: 0; stroke-dasharray: none; stroke-linecap: butt; stroke-dashoffset: 0; stroke-linejoin: miter; stroke-miterlimit: 4; fill: rgb(252,252,252); fill-rule: nonzero; opacity: 1;" vector-effect="non-scaling-stroke"  transform=" translate(-151.46, -77.27)" d="M 179.076 94.886 C 175.50799999999998 94.786 172.73999999999998 95.154 170.42 96.136 C 169.75199999999998 96.40599999999999 168.67999999999998 96.40599999999999 168.59199999999998 97.252 C 168.94899999999998 97.607 168.992 98.188 169.30499999999998 98.67999999999999 C 169.83999999999997 99.573 170.778 100.776 171.62499999999997 101.39999999999999 L 174.47999999999996 103.45299999999999 C 176.21999999999997 104.52299999999998 178.18299999999996 105.14799999999998 179.87799999999996 106.219 C 180.85999999999996 106.844 181.84099999999995 107.64699999999999 182.82299999999995 108.317 C 183.32299999999995 108.67399999999999 183.62599999999995 109.255 184.25099999999995 109.47699999999999 L 184.25099999999995 109.34199999999998 C 183.93899999999994 108.94199999999998 183.84899999999996 108.36199999999998 183.53799999999995 107.91399999999999 L 182.19799999999995 106.62099999999998 C 180.90499999999994 104.88099999999999 179.29799999999994 103.36299999999999 177.55799999999996 102.11499999999998 C 176.12999999999997 101.13299999999998 173.00799999999995 99.79499999999999 172.42799999999997 98.14499999999998 L 172.33999999999997 98.04499999999999 C 173.31999999999996 97.945 174.47999999999996 97.59799999999998 175.41799999999998 97.32999999999998 C 176.93599999999998 96.92999999999998 178.31799999999998 97.01799999999999 179.878 96.61699999999999 L 182.021 95.99199999999999 L 182.021 95.59199999999998 C 181.218 94.78899999999999 180.63799999999998 93.71799999999999 179.791 92.95999999999998 C 177.516 90.99699999999999 175.016 89.07799999999997 172.428 87.47199999999998 C 171.045 86.57999999999998 169.26 85.99899999999998 167.788 85.24199999999998 C 167.251 84.97399999999998 166.36 84.83999999999997 166.048 84.39399999999998 C 165.243 83.41399999999997 164.798 82.11899999999997 164.218 80.95799999999997 L 160.56 73.19499999999996 C 159.757 71.45499999999997 159.26500000000001 69.71499999999996 158.285 68.10899999999997 C 153.689 60.523999999999965 148.691 55.92899999999997 141.017 51.42199999999997 C 139.367 50.48499999999997 137.404 50.081999999999965 135.317 49.59199999999997 L 131.971 49.41199999999997 C 131.256 49.09999999999997 130.543 48.251999999999974 129.918 47.84999999999997 C 127.375 46.24399999999997 120.816 42.763999999999974 118.941 47.34999999999997 C 117.736 50.24999999999997 120.726 53.104999999999976 121.741 54.577999999999975 C 122.501 55.60399999999998 123.481 56.763999999999974 124.018 57.92399999999998 C 124.318 58.68199999999998 124.418 59.485999999999976 124.731 60.28899999999998 C 125.44399999999999 62.25199999999998 126.11399999999999 64.43899999999998 127.05099999999999 66.26899999999998 C 127.55099999999999 67.20599999999997 128.076 68.18899999999998 128.701 69.03599999999997 C 129.058 69.53599999999997 129.683 69.74999999999997 129.816 70.55299999999997 C 129.191 71.44599999999997 129.148 72.78299999999997 128.791 73.89999999999996 C 127.184 78.94199999999996 127.809 85.18799999999996 130.084 88.89999999999996 C 130.799 90.01499999999996 132.484 92.46999999999996 134.77 91.53199999999997 C 136.77800000000002 90.72899999999997 136.33 88.18599999999996 136.91 85.95499999999997 C 137.045 85.41999999999997 136.95499999999998 85.06299999999997 137.222 84.70499999999997 L 137.222 84.80499999999996 L 139.05200000000002 88.50799999999997 C 140.43500000000003 90.69399999999996 142.84500000000003 92.96999999999997 144.85200000000003 94.48799999999997 C 145.92200000000003 95.29099999999997 146.77000000000004 96.67499999999997 148.10800000000003 97.16499999999998 L 148.10800000000003 97.02999999999997 L 148.02000000000004 97.02999999999997 C 147.75200000000004 96.62999999999997 147.35000000000005 96.44999999999997 146.99300000000005 96.13799999999998 C 146.19000000000005 95.33499999999998 145.29800000000006 94.35299999999998 144.67300000000006 93.46099999999997 C 142.80000000000007 90.96299999999997 141.15000000000006 88.19599999999997 139.67700000000005 85.34099999999997 C 138.96200000000005 83.95799999999997 138.33700000000005 82.44099999999996 137.75900000000004 81.05799999999996 C 137.48900000000003 80.52199999999996 137.48900000000003 79.71799999999996 137.04400000000004 79.45199999999997 C 136.37400000000005 80.43199999999997 135.39400000000003 81.28199999999997 134.90100000000004 82.48599999999998 C 134.05300000000003 84.40399999999998 133.96500000000003 86.76899999999998 133.65300000000005 89.22299999999997 C 133.47300000000004 89.26799999999997 133.55300000000005 89.22299999999997 133.47300000000004 89.32299999999996 C 132.04700000000005 88.96699999999997 131.55500000000004 87.49299999999997 131.02000000000004 86.24499999999996 C 129.68200000000004 83.07699999999996 129.45800000000003 77.99099999999996 130.61800000000005 74.33199999999997 C 130.93000000000006 73.39499999999997 132.27000000000004 70.44999999999996 131.73500000000004 69.55799999999996 C 131.46500000000003 68.70999999999997 130.57500000000005 68.21999999999997 130.08300000000006 67.54999999999997 C 129.50300000000004 66.70199999999997 128.88000000000005 65.63199999999996 128.47800000000007 64.69499999999996 C 127.40800000000007 62.194999999999965 126.87300000000006 59.429999999999964 125.71200000000006 56.93099999999996 C 125.17500000000005 55.770999999999965 124.23900000000006 54.56599999999996 123.48000000000006 53.49599999999996 C 122.63200000000006 52.29099999999996 121.69700000000006 51.44299999999996 121.02700000000006 50.01599999999996 C 120.80400000000006 49.51599999999996 120.49200000000006 48.721999999999966 120.84900000000006 48.185999999999964 C 120.93700000000005 47.828999999999965 121.11700000000006 47.685999999999964 121.47200000000007 47.605999999999966 C 122.05200000000006 47.105999999999966 123.70400000000006 47.73999999999997 124.28400000000006 48.005999999999965 C 125.93400000000007 48.675999999999966 127.31700000000006 49.29999999999996 128.70000000000007 50.23599999999996 C 129.32500000000007 50.68199999999996 129.99500000000006 51.52999999999996 130.7980000000001 51.75399999999996 L 131.73600000000008 51.75399999999996 C 133.16400000000007 52.06599999999996 134.76900000000006 51.853999999999964 136.10600000000008 52.25399999999996 C 138.4710000000001 53.01399999999996 140.61200000000008 54.127999999999965 142.53200000000007 55.33399999999996 C 148.37600000000006 59.03699999999996 153.19600000000005 64.30199999999996 156.45200000000006 70.59399999999997 C 156.98700000000005 71.61999999999996 157.21000000000006 72.55699999999996 157.70200000000006 73.62799999999997 C 158.64000000000004 75.81499999999997 159.80000000000007 78.04499999999997 160.73500000000004 80.18799999999997 C 161.67300000000003 82.28499999999997 162.56500000000005 84.42799999999997 163.90300000000005 86.16799999999998 C 164.57300000000004 87.10499999999998 167.24900000000005 87.59499999999998 168.45300000000006 88.08599999999998 C 169.34600000000006 88.48599999999999 170.72800000000007 88.84599999999999 171.53300000000007 89.33599999999998 C 173.04900000000006 90.27299999999998 174.56600000000006 91.34399999999998 175.99300000000008 92.36999999999999 C 176.70600000000007 92.904 178.93800000000007 94.02 179.07100000000008 94.91 z M 133.576 56.114 C 132.95956314164317 56.108546805137244 132.34504746510655 56.1835123389817 131.748 56.336999999999996 L 131.748 56.437 L 131.83599999999998 56.437 C 132.19299999999998 57.150999999999996 132.81799999999998 57.641999999999996 133.26399999999998 58.266999999999996 L 134.29099999999997 60.409 L 134.37899999999996 60.309 C 135.00399999999996 59.863 135.31699999999995 59.149 135.31699999999995 58.079 C 135.04899999999995 57.767 135.00499999999994 57.454 134.78199999999995 57.142 C 134.51399999999995 56.696000000000005 133.93399999999994 56.472 133.57599999999996 56.116 z" stroke-linecap="round" />
</g>
</svg>