<?xml version="1.0" encoding="UTF-8" standalone="no" ?>
<!DOCTYPE svg PUBLIC "-//W3C//DTD SVG 1.1//EN" "http://www.w3.org/Graphics/SVG/1.1/DTD/svg11.dtd">
<svg xmlns="http://www.w3.org/2000/svg" xmlns:xlink="http://www.w3.org/1999/xlink" version="1.1" width="1080" height="1080" viewBox="0 0 1080 1080" xml:space="preserve">
<desc>Created with Fabric.js 5.2.4</desc>
<defs>
</defs>
<rect x="0" y="0" width="100%" height="100%" fill="transparent"></rect>
<g transform="matrix(1 0 0 1 540 540)" id="f1847806-1403-4e10-a89b-34649597b575"  >
<rect style="stroke: none; stroke-width: 1; stroke-dasharray: none; stroke-linecap: butt; stroke-dashoffset: 0; stroke-linejoin: miter; stroke-miterlimit: 4; fill: rgb(255,255,255); fill-rule: nonzero; opacity: 1; visibility: hidden;" vector-effect="non-scaling-stroke"  x="-540" y="-540" rx="0" ry="0" width="1080" height="1080" />
</g>
<g transform="matrix(1 0 0 1 540 540)" id="fd5a386c-0389-4eb4-9be0-4dc2a6decd7c"  >
</g>
<g transform="matrix(34.08 0 0 34.08 514.76 535.2)" id="70648ea4-ef38-4d14-b665-0e960c521834"  >
<path style="stroke: rgb(0,0,0); stroke-width: 0; stroke-dasharray: none; stroke-linecap: butt; stroke-dashoffset: 0; stroke-linejoin: miter; stroke-miterlimit: 4; fill: rgb(252,252,252); fill-rule: nonzero; opacity: 1;" vector-effect="non-scaling-stroke"  transform=" translate(-12, -12)" d="M 16.792 11.923 C 16.905 11.966 17.018 12.002 17.126 12.051 C 17.576 12.254 17.841 12.604000000000001 17.874000000000002 13.095 C 17.915000000000003 13.729000000000001 17.918000000000003 14.366 17.876 15 C 17.827 15.732 17.151 16.292 16.393 16.271 C 15.658000000000001 16.25 15.024000000000001 15.651000000000002 14.996 14.930000000000001 C 14.979000000000001 14.489 14.993 14.046000000000001 14.99 13.604000000000001 C 14.989 13.365 14.987 13.362000000000002 14.745000000000001 13.361 C 13.382000000000001 13.360000000000001 12.019000000000002 13.369 10.656 13.358 C 9.768 13.351 9.235000000000001 13.84 9.185 14.818000000000001 C 9.166 15.198000000000002 9.085 15.545000000000002 8.828000000000001 15.836000000000002 C 8.431000000000001 16.287000000000003 7.9300000000000015 16.437 7.356000000000002 16.302000000000003 C 6.802000000000001 16.171000000000003 6.489000000000002 15.780000000000003 6.3210000000000015 15.254000000000003 C 6.2040000000000015 14.887000000000004 6.2650000000000015 14.517000000000003 6.333000000000001 14.160000000000004 C 6.674000000000001 12.363000000000003 7.699000000000002 11.154000000000003 9.458000000000002 10.605000000000004 C 9.815000000000001 10.493000000000004 10.189000000000002 10.439000000000004 10.563000000000002 10.439000000000004 C 11.503000000000002 10.440000000000003 12.444000000000003 10.440000000000003 13.384000000000002 10.438000000000004 C 13.512000000000002 10.438000000000004 13.641000000000002 10.426000000000004 13.769000000000002 10.417000000000003 C 14.471000000000002 10.366000000000003 14.935000000000002 9.906000000000004 14.989000000000003 9.065000000000003 C 14.993000000000002 9.001000000000003 14.989000000000003 8.936000000000003 14.990000000000002 8.872000000000003 C 15.001000000000001 8.084000000000003 15.595000000000002 7.4760000000000035 16.383000000000003 7.447000000000004 C 17.17 7.418000000000004 17.821 7.974000000000004 17.876 8.765000000000004 C 17.952 9.848000000000004 17.611 10.811000000000003 16.963 11.672000000000004 C 16.903 11.751 16.819 11.816 16.792 11.923 z M 8.249 10.436 C 7.9910000000000005 10.428 7.678000000000001 10.454 7.367000000000001 10.401 C 6.831000000000001 10.311 6.4910000000000005 10.011 6.347000000000001 9.485 C 6.19 8.912 6.25 8.388 6.698 7.96 C 7.154 7.526 7.694 7.4 8.285 7.645 C 8.805 7.861 9.144 8.376 9.175 8.937999999999999 C 9.2 9.382 9.178 9.828 9.182 10.272 C 9.183 10.388 9.139000000000001 10.439 9.021 10.437 C 8.781 10.434 8.542 10.436 8.249 10.436 z M 21.682 0 L 2.318 0 C 1.102 0 0.116 0.986 0.116 2.202 L 0.116 21.519 C 0.116 22.889 1.227 24 2.597 24 L 21.404 24 C 22.774 24 23.884999999999998 22.889 23.884999999999998 21.519 L 23.884999999999998 2.202 C 23.884 0.986 22.898 0 21.682 0 z M 20.125 12.473 C 20.644 13.277000000000001 20.858 14.163 20.802 15.13 C 20.694 17.016000000000002 19.389 18.604 17.552 19.046 C 14.966999999999999 19.669 12.986 18.122999999999998 12.318999999999999 16.252 C 12.209999999999999 15.947999999999999 12.158999999999999 15.629999999999999 12.094999999999999 15.267 C 12.027 15.681 11.979999999999999 16.056 11.831 16.401 C 11.134 18.018 9.947 19.004 8.166 19.2 C 6.062 19.432 4.118 18.133 3.5340000000000007 16.116 C 3.2840000000000007 15.253 3.359000000000001 14.369 3.4660000000000006 13.491 C 3.5460000000000007 12.838 3.787000000000001 12.222999999999999 4.098000000000001 11.642999999999999 C 4.155000000000001 11.536999999999999 4.155000000000001 11.459 4.088000000000001 11.357999999999999 C 3.527000000000001 10.512999999999998 3.309000000000001 9.581 3.388000000000001 8.573999999999998 C 3.43 8.035 3.56 7.52 3.805 7.038 C 4.52 5.626 6.09 4.427 8.193 4.626 C 10.042 4.801 11.754999999999999 6.396000000000001 12.023 8.190000000000001 C 12.036 8.280000000000001 12.062 8.368000000000002 12.091 8.501000000000001 C 12.135 8.260000000000002 12.167 8.062000000000001 12.209 7.865000000000001 C 12.552999999999999 6.235000000000001 14.149 4.530000000000001 16.41 4.508000000000001 C 18.701999999999998 4.487000000000001 20.4 6.284000000000001 20.72 7.954000000000001 C 20.89 8.842 20.808999999999997 9.73 20.616999999999997 10.617 C 20.505 11.134 20.307 11.625 20.092999999999996 12.109000000000002 C 20.034 12.245 20.043 12.345 20.125 12.473 z" stroke-linecap="round" />
</g>
</svg>